0
SECTION
2
HEADER
9
$INSUNITS
70
4
9
$ACADVER
1
AC1014
9
$HANDSEED
5
FFFF
0
ENDSEC
0
SECTION
2
TABLES
0
TABLE
2
VPORT
5
8
100
AcDbSymbolTable
0
ENDTAB
0
TABLE
2
LTYPE
5
5
100
AcDbSymbolTable
0
LTYPE
5
14
100
AcDbSymbolTableRecord
100
AcDbLinetypeTableRecord
2
BYBLOCK
70
0
0
LTYPE
5
15
100
AcDbSymbolTableRecord
100
AcDbLinetypeTableRecord
2
BYLAYER
70
0
0
ENDTAB
0
TABLE
2
LAYER
5
2
100
AcDbSymbolTable
70
2
0
LAYER
5
50
100
AcDbSymbolTableRecord
100
AcDbLayerTableRecord
2
0
70
0
6
CONTINUOUS
0
ENDTAB
0
TABLE
2
STYLE
5
3
100
AcDbSymbolTable
70
1
0
STYLE
5
11
100
AcDbSymbolTableRecord
100
AcDbTextStyleTableRecord
2
STANDARD
70
0
0
ENDTAB
0
TABLE
2
VIEW
5
6
100
AcDbSymbolTable
70
0
0
ENDTAB
0
TABLE
2
UCS
5
7
100
AcDbSymbolTable
70
0
0
ENDTAB
0
TABLE
2
APPID
5
9
100
AcDbSymbolTable
70
2
0
APPID
5
12
100
AcDbSymbolTableRecord
100
AcDbRegAppTableRecord
2
ACAD
70
0
0
ENDTAB
0
TABLE
2
DIMSTYLE
5
A
100
AcDbSymbolTable
70
1
0
ENDTAB
0
TABLE
2
BLOCK_RECORD
5
1
100
AcDbSymbolTable
70
1
0
BLOCK_RECORD
5
1F
100
AcDbSymbolTableRecord
100
AcDbBlockTableRecord
2
*MODEL_SPACE
0
BLOCK_RECORD
5
1B
100
AcDbSymbolTableRecord
100
AcDbBlockTableRecord
2
*PAPER_SPACE
0
ENDTAB
0
ENDSEC
0
SECTION
2
BLOCKS
0
BLOCK
5
20
100
AcDbEntity
100
AcDbBlockBegin
2
*MODEL_SPACE
0
ENDBLK
5
21
100
AcDbEntity
100
AcDbBlockEnd
0
BLOCK
5
1C
100
AcDbEntity
100
AcDbBlockBegin
2
*PAPER_SPACE
0
ENDBLK
5
1D
100
AcDbEntity
100
AcDbBlockEnd
0
ENDSEC
0
SECTION
2
ENTITIES
0
CIRCLE
5
100
100
AcDbEntity
8
0
100
AcDbCircle
10
22.799999999999994
20
72.400000000000006
30
0
40
5
210
0
220
-0
230
1
0
CIRCLE
5
101
100
AcDbEntity
8
0
100
AcDbCircle
10
75
20
1
30
0
40
16.500000000000004
210
0
220
-0
230
1
0
CIRCLE
5
102
100
AcDbEntity
8
0
100
AcDbCircle
10
-72.000000000000014
20
1
30
0
40
16.5
210
0
220
-0
230
1
0
CIRCLE
5
103
100
AcDbEntity
8
0
100
AcDbCircle
10
23.200000000000003
20
-70.400000000000006
30
0
40
5
210
0
220
-0
230
1
0
LWPOLYLINE
5
104
100
AcDbEntity
8
0
100
AcDbPolyline
90
40
70
1
43
0.0
10
-58.261591656000668
20
-85.98466909921936
42
0.13891067956259173
10
-3.8322799414539332
20
-103.69455018451592
10
-3.8322799414539066
20
-97.436626745780885
42
-0.99999999999999989
10
4.1677200585460827
20
-97.436626745780814
10
4.1677200585460747
20
-103.69783688141958
42
0.13891067956259162
10
58.611565149536489
20
-86.032684929543407
10
54.933249992726033
20
-80.969918449914445
42
-0.99999998946328772
10
61.405385997272148
20
-76.26763649976958
10
65.085632976504769
20
-81.333061904854063
42
0.13891067956259162
10
98.748313097414695
20
-35.040364544990339
10
92.796674232529526
20
-33.106559852923887
42
-0.99999999999999989
10
95.268810187529027
20
-25.498107722562658
10
101.22357488692157
20
-27.432928059827709
42
0.13891067956259145
10
101.24709038397881
20
29.805077747468076
10
95.29545151909366
20
27.871273055401666
42
-0.99999999999999989
10
92.823315564094017
20
35.479725185762931
10
98.778080263486487
20
37.414545523027918
42
0.13891067956259168
10
65.153449016077531
20
83.734887007632764
10
61.47513390881371
20
78.672120596198823
42
-0.99999999999999989
10
55.002997953814081
20
83.374402614538553
10
58.683244933046701
20
88.439828019622979
42
0.13891067956259162
10
4.2539332185000056
20
106.14970910491951
10
4.2539332184999967
20
99.891785666184461
42
-0.99999999999999989
10
-3.7460667815000015
20
99.891785666184418
10
-3.7460667814999931
20
106.15299580182317
42
0.1389106795625914
10
-58.189911872490342
20
88.487843849947069
10
-54.511596765226535
20
83.425077438513085
42
-0.99999999999999989
10
-60.983732720226058
20
78.722795420173213
10
-64.663979699458693
20
83.788220825257653
42
0.13891067956259162
10
-98.326659820368604
20
37.495523465393937
10
-92.3750208753154
20
35.561718747279329
42
-0.99999998946328772
10
-94.847156910482965
20
27.95326664296622
10
-100.80192160987548
20
29.888086980231297
42
0.1389106795625914
10
-100.82543710693272
20
-27.349918827064471
10
-94.873798242047584
20
-25.416114134998061
42
-0.99999999999999989
10
-92.401662287047941
20
-33.02456626535929
10
-98.356426986440439
20
-34.959386602624328
42
0.13891067956259162
10
-64.731795739031455
20
-81.279728087229159
10
-61.053480631767627
20
-76.216961675795218
42
-0.99999999999999989
10
-54.581344676768012
20
-80.919243694134934
0
ENDSEC
0
SECTION
2
OBJECTS
0
DICTIONARY
5
C
100
AcDbDictionary
3
ACAD_GROUP
350
D
3
ACAD_MLINESTYLE
350
17
0
DICTIONARY
5
D
100
AcDbDictionary
0
DICTIONARY
5
1A
330
C
100
AcDbDictionary
0
DICTIONARY
5
17
100
AcDbDictionary
0
ENDSEC
0
EOF
